<svg id="Group_12" data-name="Group 12" xmlns="http://www.w3.org/2000/svg" width="24.255" height="29.082" viewBox="0 0 24.255 29.082">
  <g id="Group_17" data-name="Group 17">
    <path id="Path_14" data-name="Path 14" d="M19.763,262.055H4.487c-.089-.02-.178-.046-.268-.061a4.6,4.6,0,0,1-3.974-3.243A10.506,10.506,0,0,1,0,257.624v-1.7c.038-.374.072-.748.114-1.122A12.714,12.714,0,0,1,1.467,250a5.382,5.382,0,0,1,4.106-2.929,2.419,2.419,0,0,1,1.911.395c.317.237.662.439,1,.648a6.462,6.462,0,0,0,7.3,0c.418-.259.819-.548,1.249-.784a1.926,1.926,0,0,1,.842-.295,5.2,5.2,0,0,1,3.471,1.175,7.277,7.277,0,0,1,2.219,3.624,17.356,17.356,0,0,1,.687,5.579,4.592,4.592,0,0,1-3.3,4.375c-.384.119-.786.18-1.18.268" transform="translate(0 -232.973)" fill="#cfcfd1"/>
    <path id="Path_15" data-name="Path 15" d="M100.87,7a7.005,7.005,0,1,1-7-7,7,7,0,0,1,7,7" transform="translate(-81.917 0)" fill="#cfcfd1"/>
  </g>
</svg>
