<svg id="Group_2" data-name="Group 2" xmlns="http://www.w3.org/2000/svg" width="29.075" height="29.082" viewBox="0 0 29.075 29.082">
  <g id="Group_13" data-name="Group 13">
    <path id="Path_1" data-name="Path 1" d="M23.229,29.081H18A1.007,1.007,0,0,1,17.326,28c.013-2.165.007-4.329,0-6.494a1.435,1.435,0,0,0-1.558-1.551c-.8,0-1.607,0-2.411,0a1.448,1.448,0,0,0-1.617,1.606c0,2.146-.008,4.292.005,6.437a1.009,1.009,0,0,1-.675,1.085H5.85c-.024-.014-.047-.037-.072-.04a3.177,3.177,0,0,1-2.669-3.269c.037-2.734.01-5.468.01-8.2v-.316a.486.486,0,0,0-.091-.031c-.142,0-.284,0-.425-.007A2.612,2.612,0,0,1,.3,15.759a5.987,5.987,0,0,1-.3-.816v-.795a4.036,4.036,0,0,1,1.31-2.031Q6.914,6.54,12.5.942a2.683,2.683,0,0,1,4.082,0L28.141,12.5c.1.1.2.2.293.309A2.668,2.668,0,0,1,26.9,17.165a9.367,9.367,0,0,1-.941.081c0,.124,0,.236,0,.348,0,2.819.008,5.639-.008,8.458a3.105,3.105,0,0,1-2.235,2.9c-.162.046-.325.086-.487.129" transform="translate(0 0)" fill="#0d5c87"/>
  </g>
</svg>
