<svg xmlns="http://www.w3.org/2000/svg" width="26.273" height="29.082" viewBox="0 0 26.273 29.082">
  <g id="Group_10" data-name="Group 10" transform="translate(0)">
    <g id="Group_16" data-name="Group 16">
      <path id="Path_11" data-name="Path 11" d="M13.163,0a7.41,7.41,0,0,1,.883.385q5.594,3.341,11.178,6.7c.2.122.409.238.61.363a.705.705,0,0,1,0,1.319q-2.2,1.324-4.4,2.639-4.01,2.406-8.018,4.817a.431.431,0,0,1-.518,0Q6.7,12.491.484,8.77C-.141,8.4-.139,7.817.492,7.439Q6.41,3.886,12.332.341A6.12,6.12,0,0,1,13.163,0" transform="translate(-0.016)" fill="#cfcfd1"/>
      <path id="Path_12" data-name="Path 12" d="M13.165,310.222a4.761,4.761,0,0,1-.763-.292q-5.98-3.573-11.949-7.165a.692.692,0,0,1,.019-1.28c.441-.267.891-.522,1.324-.8a.4.4,0,0,1,.491.007q5.276,3.179,10.555,6.352a.55.55,0,0,0,.664,0q5.26-3.174,10.529-6.335a.439.439,0,0,1,.546,0c.422.277.866.521,1.3.786a.693.693,0,0,1,0,1.282q-5.958,3.579-11.922,7.147a4.921,4.921,0,0,1-.786.3" transform="translate(-0.032 -281.139)" fill="#cfcfd1"/>
      <path id="Path_13" data-name="Path 13" d="M26.257,202.157a.761.761,0,0,1-.466.678q-2.3,1.372-4.591,2.753-3.9,2.34-7.794,4.684a.432.432,0,0,1-.521.007q-6.2-3.736-12.413-7.456c-.63-.378-.628-.95,0-1.33.423-.255.854-.5,1.269-.767a.421.421,0,0,1,.516-.008c3.489,2.1,6.985,4.193,10.47,6.3a.683.683,0,0,0,.828-.005c3.477-2.1,6.966-4.187,10.446-6.285a.437.437,0,0,1,.544,0c.431.283.883.534,1.323.8a.674.674,0,0,1,.387.623" transform="translate(0 -187.644)" fill="#cfcfd1"/>
    </g>
  </g>
</svg>
