<svg id="Group_4" data-name="Group 4" xmlns="http://www.w3.org/2000/svg" width="23.065" height="29.082" viewBox="0 0 23.065 29.082">
  <g id="Group_14" data-name="Group 14">
    <path id="Path_2" data-name="Path 2" d="M18.859,123.918H4.2a2.075,2.075,0,0,0-.21-.061,4.713,4.713,0,0,1-3.425-2.438A5.763,5.763,0,0,1,0,119.6v-.966c.055-.563.119-1.126.164-1.69.181-2.263.354-4.526.534-6.789.2-2.508.41-5.015.6-7.524a2.077,2.077,0,0,1,2.2-2.066l2.412,0c0,1.259-.006,2.519,0,3.778a.85.85,0,1,0,1.7,0c.005-1.259,0-2.519,0-3.778h7.847c0,1.241-.005,2.481,0,3.722a.855.855,0,1,0,1.7,0c0-1.241,0-2.481,0-3.722.823,0,1.646,0,2.469.005a2.07,2.07,0,0,1,2.142,2.037c.108,1.509.235,3.017.355,4.526q.243,3.054.489,6.109c.145,1.819.267,3.641.438,5.458a4.761,4.761,0,0,1-3,4.884c-.384.145-.792.228-1.189.339m-8.5-10.839-1.4-1.409a.857.857,0,0,0-.818-.285.854.854,0,0,0-.417,1.458c.624.633,1.255,1.26,1.884,1.888a.9.9,0,0,0,1.507.007q2.058-2.056,4.113-4.113a2.333,2.333,0,0,0,.211-.23.845.845,0,0,0-1.173-1.2,2.472,2.472,0,0,0-.271.249c-1.2,1.2-2.408,2.407-3.632,3.631" transform="translate(0 -94.836)" fill="#cfcfd1"/>
    <path id="Path_3" data-name="Path 3" d="M105.415,100.561c0,1.259.007,2.519,0,3.778a.85.85,0,1,1-1.7,0c-.007-1.259,0-2.519,0-3.778l-.008.008h1.712Z" transform="translate(-97.807 -94.837)" fill="#cfcfd1"/>
    <path id="Path_4" data-name="Path 4" d="M273.064,100.56c0,1.241,0,2.481,0,3.722a.855.855,0,1,1-1.7,0c0-1.241,0-2.481,0-3.722l-.008.009h1.712Z" transform="translate(-255.913 -94.836)" fill="#cfcfd1"/>
    <path id="Path_5" data-name="Path 5" d="M114.966,5.733h-1.712a3.917,3.917,0,1,0-7.831,0h-1.712a5.629,5.629,0,1,1,11.255,0" transform="translate(-97.807 0)" fill="#cfcfd1"/>
  </g>
</svg>
