<svg id="Group_6" data-name="Group 6" xmlns="http://www.w3.org/2000/svg" width="26.415" height="29.082" viewBox="0 0 26.415 29.082">
  <g id="Group_15" data-name="Group 15">
    <path id="Path_6" data-name="Path 6" d="M19.952,0q1.634.832,3.268,1.665c.305.156.606.321.948.5L20.851,3.847q-4.733,2.4-9.467,4.789a.367.367,0,0,1-.278.034C9.767,8,8.435,7.325,7.066,6.631c.123-.077.215-.142.313-.194q5.888-3.1,11.778-6.2c.174-.092.362-.157.544-.235Z" transform="translate(-6.621)" fill="#cfcfd1"/>
    <path id="Path_7" data-name="Path 7" d="M228.218,115.344v.422q0,6.9.005,13.8a1.29,1.29,0,0,1-.758,1.258q-5.88,3.085-11.753,6.185c-.089.047-.184.084-.321.146v-.4q0-7.247-.009-14.494a.6.6,0,0,1,.4-.646c2.623-1.306,5.233-2.637,7.848-3.96l4.23-2.141c.093-.047.188-.088.356-.167" transform="translate(-201.808 -108.075)" fill="#cfcfd1"/>
    <path id="Path_8" data-name="Path 8" d="M8.11,119.711c1.122.568,2.176,1.1,3.23,1.634.439.222.883.433,1.316.665a.488.488,0,0,1,.167.246.619.619,0,0,1,0,.218q0,7.262,0,14.525v.426c-.107-.045-.19-.072-.265-.111q-5.945-3.13-11.89-6.261A1.187,1.187,0,0,1,0,129.906q.007-6.964,0-13.928c0-.1.011-.2.02-.338.124.054.219.089.308.134,1.205.608,2.407,1.223,3.617,1.821a.39.39,0,0,1,.244.429c-.011,2.064-.01,4.129-.005,6.193,0,.532.286.785.783.621a1.207,1.207,0,0,1,1.525.476,7.292,7.292,0,0,0,.58.619.578.578,0,0,0,.7.2.589.589,0,0,0,.337-.618q-.005-2.672,0-5.345v-.465" transform="translate(0 -108.352)" fill="#cfcfd1"/>
    <path id="Path_9" data-name="Path 9" d="M135.251,74.119c.863-.439,1.673-.852,2.484-1.262q5.026-2.545,10.051-5.1a.654.654,0,0,1,.688.011c1.289.7,2.589,1.371,3.885,2.054.1.053.2.111.337.189-.118.071-.2.126-.284.169q-5.979,3.027-11.957,6.056a1.027,1.027,0,0,1-1.035,0c-1.271-.663-2.554-1.3-3.833-1.949-.093-.047-.185-.1-.335-.174" transform="translate(-126.727 -63.404)" fill="#cfcfd1"/>
  </g>
</svg>
